<svg width="768" height="695" viewBox="0 0 768 695" fill="none" xmlns="http://www.w3.org/2000/svg">
<path d="M358.882 301.226C358.882 377.676 360.418 419.376 362.722 419.376C365.026 419.376 366.562 377.676 366.562 301.226C366.562 224.776 365.026 183.076 362.722 183.076C360.418 183.076 358.882 224.776 358.882 301.226Z" fill="#E6A900"/>
<path d="M417.25 190.026C409.57 196.629 408.802 200.451 408.802 236.591C408.802 273.079 409.57 276.206 417.634 283.156C436.834 299.489 470.242 287.326 470.242 264.391C470.242 253.966 469.09 252.576 460.642 252.576C453.73 252.576 451.042 254.314 451.042 259.179C451.042 269.256 441.058 275.511 433.762 269.951C428.77 266.476 428.002 258.831 428.77 233.811C429.922 202.536 429.922 202.189 439.522 202.189C447.202 202.189 449.506 204.274 450.274 211.919C451.426 219.911 453.346 221.649 459.874 220.606C472.162 219.216 473.314 202.189 462.178 191.416C451.042 180.644 429.154 179.949 417.25 190.026Z" fill="#E6A900"/>
<path d="M495.586 190.374C487.906 195.934 485.602 200.451 485.602 210.529C485.602 221.996 488.29 226.166 507.106 241.804C529.378 260.569 532.834 270.646 517.09 272.731C510.178 273.774 508.258 271.689 506.338 263.349C504.418 255.009 501.73 252.576 494.818 252.576C487.138 252.576 485.602 254.314 485.602 264.044C485.602 288.369 518.242 299.836 537.442 282.114C552.802 268.561 550.498 254.661 529.378 235.896C506.722 215.394 503.266 209.486 510.562 203.926C517.858 198.366 527.842 204.969 527.842 214.699C527.842 219.564 530.53 221.301 537.442 221.301C545.89 221.301 547.042 219.911 547.042 209.834C547.042 186.204 517.09 175.084 495.586 190.374Z" fill="#E6A900"/>
<path d="M566.242 236.939V290.801L596.962 290.106L627.682 289.411V279.681C627.682 270.299 627.298 269.951 606.562 269.951H585.442V257.789C585.442 245.626 585.442 245.626 602.722 245.626C618.466 245.626 620.002 244.931 620.002 236.939C620.002 228.946 618.466 228.251 602.722 228.251C585.442 228.251 585.442 228.251 585.442 216.089V203.926H606.562C627.298 203.926 627.682 203.926 627.682 193.501V183.076H596.962H566.242V236.939Z" fill="#E6A900"/>
<path d="M647.65 235.549L648.802 289.064L671.074 288.716C705.634 288.021 708.322 284.199 708.322 236.939C708.322 189.679 705.634 186.204 669.538 183.771L646.498 182.381L647.65 235.549ZM687.202 236.939C687.202 270.299 686.818 271.689 678.754 272.731C669.922 273.774 669.922 273.426 669.922 236.939C669.922 200.451 669.922 200.104 678.754 201.146C686.818 202.189 687.202 203.579 687.202 236.939Z" fill="#E6A900"/>
<path d="M132.322 219.216C93.9221 229.294 76.6421 235.201 76.6421 238.676C76.6421 241.804 86.6261 246.321 105.442 251.186L134.242 258.484L136.162 278.291L138.082 298.099L163.426 310.261L188.77 322.424L214.498 309.914L239.842 297.056V278.639C239.842 260.916 243.298 256.051 255.202 256.051C257.122 256.051 259.042 268.561 259.81 283.851C260.578 299.489 262.498 311.651 264.802 311.651C267.106 311.651 269.41 298.099 270.562 281.419L272.482 251.534L285.922 247.364C312.034 239.371 304.738 234.506 249.058 220.259C219.874 212.614 194.53 206.359 192.226 205.664C189.922 204.969 163.042 210.876 132.322 219.216ZM228.706 227.209C249.442 232.074 266.722 237.286 266.722 238.676C266.722 240.066 249.058 245.279 227.554 250.491L188.77 259.874L149.218 250.144C127.33 244.931 109.282 239.719 109.282 238.676C109.282 236.591 176.482 218.521 185.314 218.174C188.002 217.826 207.586 221.996 228.706 227.209ZM170.722 267.866C184.93 271.689 191.074 271.689 207.202 267.866C217.57 265.086 226.786 263.001 227.554 263.001C227.938 263.001 228.322 269.256 228.322 276.901C228.322 290.106 227.554 291.149 208.354 299.836L188.386 308.871L168.034 299.836C148.45 291.149 147.682 290.454 147.682 276.901C147.682 261.264 147.298 261.264 170.722 267.866Z" fill="#002B55"/>
<path d="M414.946 315.821C411.49 319.991 408.802 327.984 408.802 333.196C408.802 341.189 410.338 342.926 418.402 342.926C425.314 342.926 428.002 341.189 428.002 336.324C428.002 326.594 437.218 320.686 443.362 327.289C449.122 333.544 447.586 337.714 427.234 364.471C415.33 380.804 411.106 389.491 411.106 400.264L410.722 414.164L437.218 413.469C462.946 412.426 471.778 408.951 469.09 400.264C468.322 398.179 459.49 396.441 449.89 395.746C439.906 395.051 431.842 393.314 431.842 391.576C431.842 390.186 438.754 380.456 447.202 370.379C455.65 360.301 464.482 346.401 466.786 340.146C470.626 330.069 469.858 326.941 463.714 318.949C457.57 311.999 452.194 309.566 438.37 308.871C423.778 307.829 419.938 309.219 414.946 315.821Z" fill="#E6A900"/>
<path d="M489.442 315.126C482.914 321.034 481.762 326.594 481.762 358.911C481.762 379.066 483.298 398.179 485.602 401.654C491.362 411.731 509.026 416.944 522.082 412.426C540.514 406.171 542.818 399.916 543.202 361.691C543.202 331.111 542.05 325.204 535.138 317.211C525.154 305.744 501.346 304.354 489.442 315.126ZM519.394 361.344C520.546 392.619 519.778 395.051 512.866 395.051C502.882 395.051 500.962 388.796 500.962 357.174C500.962 329.026 502.498 324.509 512.482 326.246C517.09 327.289 518.626 333.891 519.394 361.344Z" fill="#E6A900"/>
<path d="M562.402 315.126C558.178 318.949 554.722 326.594 554.722 332.501C554.722 341.189 556.258 342.926 563.938 342.926C570.85 342.926 574.306 340.146 576.994 332.501C580.066 325.204 583.138 322.771 586.978 324.161C597.346 327.636 593.89 339.451 575.458 364.124C562.402 381.151 557.41 391.229 557.026 400.959L556.642 414.164L577.762 413.469C589.282 413.121 602.722 412.774 607.714 412.774C614.242 412.426 616.162 410.341 616.162 403.739C616.162 395.746 614.626 395.051 598.882 395.051C577.378 395.051 576.994 391.576 596.962 367.251C616.93 343.274 620.386 327.984 608.098 316.516C596.962 305.744 573.538 305.049 562.402 315.126Z" fill="#E6A900"/>
<path d="M640.738 310.956C631.138 316.516 627.682 330.416 627.682 361.691C627.682 391.229 628.45 395.746 636.898 404.086C648.802 416.944 671.458 417.639 681.826 405.824C687.97 398.874 689.122 391.576 689.122 359.954C689.122 326.594 688.354 321.381 681.442 315.126C673.762 308.176 649.57 305.396 640.738 310.956ZM668.002 360.301C668.002 390.881 667.618 393.314 660.322 393.314C653.41 393.314 652.642 390.534 651.49 359.259C650.338 325.204 650.338 325.204 659.17 326.246C667.618 327.289 668.002 328.679 668.002 360.301Z" fill="#E6A900"/>
<path d="M77.4102 345.359C75.8742 346.401 74.7222 352.656 74.7222 358.911C74.7222 367.251 72.8022 370.379 66.6582 371.769C62.0502 372.811 59.3622 375.939 60.1302 378.371C61.2822 381.846 75.4902 383.236 113.506 384.626C155.746 386.016 166.882 387.406 175.714 392.966C186.466 399.569 186.85 399.569 200.674 392.966C211.81 387.754 226.018 386.016 266.338 384.626C304.354 383.236 318.562 381.846 319.714 378.371C320.482 375.939 317.794 372.811 313.186 371.769C307.426 370.379 305.122 367.251 305.122 360.301C305.122 344.316 298.21 342.231 249.826 343.621C214.882 344.316 204.514 346.054 198.754 350.571C191.842 356.479 190.69 356.479 176.482 349.876C164.194 344.316 153.826 342.926 120.802 342.926C98.1462 342.926 78.5622 343.969 77.4102 345.359ZM175.33 362.734C184.546 370.379 184.93 382.889 175.714 379.414C160.354 373.506 140.386 370.726 114.274 370.726C88.9302 370.726 86.2422 370.031 86.2422 363.776C86.2422 357.174 88.9302 356.826 127.33 356.826C159.97 356.826 169.57 357.869 175.33 362.734ZM289.762 363.776C289.762 370.031 287.074 370.726 261.73 370.726C245.986 370.726 224.866 373.159 214.498 375.939C204.13 378.719 195.298 381.151 194.53 381.151C193.762 381.151 194.53 377.676 195.682 373.159C200.29 359.259 208.354 356.826 250.21 356.826C287.074 356.826 289.762 357.174 289.762 363.776Z" fill="#002B55"/>
<path d="M397.666 477.756L397.282 499.649L408.034 498.606C416.098 497.911 418.786 495.479 419.554 487.834C421.09 476.714 413.794 466.984 406.498 469.416C403.81 470.459 400.738 468.026 399.97 463.509C399.202 459.339 398.05 465.594 397.666 477.756ZM415.714 485.054C416.866 494.436 415.714 496.174 409.954 495.131C402.658 494.089 399.202 484.706 402.658 476.366C406.498 467.331 414.562 472.891 415.714 485.054Z" fill="#E6A900"/>
<path d="M486.754 478.451C486.37 492.351 487.522 497.564 489.058 492.351L491.746 484.011L498.274 492.351L505.186 501.039L502.882 491.656C501.346 486.791 502.114 478.799 504.418 474.281L509.026 466.289L502.498 473.934C493.666 485.054 490.21 484.011 488.29 468.721C487.522 461.424 486.754 465.594 486.754 478.451Z" fill="#E6A900"/>
<path d="M297.826 472.891C290.914 480.536 293.986 497.216 302.818 498.606C306.658 499.301 311.266 498.606 313.186 496.869C315.49 494.784 313.57 493.741 308.578 493.741C303.97 494.089 299.362 492.004 298.594 489.571C297.442 487.139 300.13 485.401 304.738 485.401C314.722 485.401 318.562 479.494 312.802 473.239C306.658 466.636 303.586 466.636 297.826 472.891ZM310.882 474.629C313.57 478.799 306.274 482.969 301.282 480.189C297.058 477.756 299.746 471.501 305.122 471.501C307.042 471.501 309.346 472.891 310.882 474.629Z" fill="#E6A900"/>
<path d="M327.01 470.111C325.474 471.501 324.322 474.281 324.322 476.366C324.322 478.451 325.858 478.104 327.778 475.324C329.698 472.891 333.154 471.849 335.458 472.891C341.986 476.714 340.45 481.231 332.002 483.664C327.778 484.706 324.322 488.876 324.322 492.699C324.322 497.564 327.01 499.301 335.074 499.301C345.826 499.301 345.826 498.954 343.906 484.706C341.602 470.459 333.922 463.856 327.01 470.111ZM339.682 490.614C339.682 493.394 336.994 495.826 333.922 495.826C327.778 495.826 326.242 491.656 330.85 487.834C335.074 483.664 339.682 485.054 339.682 490.614Z" fill="#E6A900"/>
<path d="M360.034 470.459C356.962 471.501 355.426 477.756 355.81 486.444C356.194 500.344 356.194 500.344 357.73 489.224C358.882 482.621 362.338 474.976 365.794 472.544C372.322 468.374 368.866 466.984 360.034 470.459Z" fill="#E6A900"/>
<path d="M429.538 472.891C428.386 475.671 428.002 482.274 428.77 487.834C430.306 501.039 445.666 503.819 449.122 491.309C453.73 475.671 435.682 458.991 429.538 472.891ZM446.434 486.791C445.666 490.614 442.21 494.436 438.754 495.131C433.378 496.174 431.842 494.089 431.842 486.096C431.842 480.536 432.994 474.976 434.53 473.934C438.754 469.764 447.586 479.146 446.434 486.791Z" fill="#E6A900"/>
<path d="M459.49 472.196C449.506 481.231 456.418 501.039 468.706 498.606C477.538 497.216 481.378 475.671 473.314 471.154C466.786 466.984 464.866 467.331 459.49 472.196ZM473.314 485.054C474.466 494.436 473.314 496.174 467.554 495.131C460.258 494.089 456.802 484.706 460.258 476.366C464.098 467.331 472.162 472.891 473.314 485.054Z" fill="#E6A900"/>
<path d="M268.258 479.25C275.17 504.27 275.554 507.745 270.178 510.872C266.722 512.957 266.338 514 269.41 514C275.17 514 276.322 512.262 283.618 490.37C286.69 480.292 287.842 472.995 285.922 474.037C283.618 475.427 282.082 479.25 282.082 482.725C282.082 486.2 280.546 490.37 278.242 491.412C276.322 492.455 274.402 490.717 274.402 487.242C274.402 483.767 272.482 478.555 270.178 475.775C267.106 471.605 266.722 472.3 268.258 479.25Z" fill="#E6A900"/>
</svg>
